<svg width="64" height="64" viewBox="0 0 64 64" fill="none" xmlns="http://www.w3.org/2000/svg">
<path fill-rule="evenodd" clip-rule="evenodd" d="M12 12H31V28H12V12ZM13 13H30V27H13V13Z" fill="url(#paint0_linear_420_135)"/>
<path fill-rule="evenodd" clip-rule="evenodd" d="M10 10V34H37V10H10ZM36 11H11V33H36V11Z" fill="url(#paint1_linear_420_135)"/>
<path fill-rule="evenodd" clip-rule="evenodd" d="M8 8H43V40H8V8ZM9 9H42V39H9V9Z" fill="url(#paint2_linear_420_135)"/>
<path fill-rule="evenodd" clip-rule="evenodd" d="M6 6V46H48V6H6ZM47 7H7V45H47V7Z" fill="url(#paint3_linear_420_135)"/>
<path fill-rule="evenodd" clip-rule="evenodd" d="M4 4H53V52H4V4ZM5 5H52V51H5V5Z" fill="url(#paint4_linear_420_135)"/>
<path fill-rule="evenodd" clip-rule="evenodd" d="M2 2V58H58V2H2ZM57 3H3V57H57V3Z" fill="url(#paint5_linear_420_135)"/>
<path fill-rule="evenodd" clip-rule="evenodd" d="M0 0V64H64V0H0ZM63 1H1V63H63V1Z" fill="url(#paint6_linear_420_135)"/>
<defs>
<linearGradient id="paint0_linear_420_135" x1="1" y1="-4.73345e-07" x2="65" y2="65.5" gradientUnits="userSpaceOnUse">
<stop stop-color="#FBBF24" stop-opacity="0.67"/>
<stop offset="1" stop-color="white" stop-opacity="0"/>
</linearGradient>
<linearGradient id="paint1_linear_420_135" x1="1" y1="-4.73345e-07" x2="65" y2="65.5" gradientUnits="userSpaceOnUse">
<stop stop-color="#FBBF24" stop-opacity="0.67"/>
<stop offset="1" stop-color="white" stop-opacity="0"/>
</linearGradient>
<linearGradient id="paint2_linear_420_135" x1="1" y1="-4.73345e-07" x2="65" y2="65.5" gradientUnits="userSpaceOnUse">
<stop stop-color="#FBBF24" stop-opacity="0.67"/>
<stop offset="1" stop-color="white" stop-opacity="0"/>
</linearGradient>
<linearGradient id="paint3_linear_420_135" x1="1" y1="-4.73345e-07" x2="65" y2="65.5" gradientUnits="userSpaceOnUse">
<stop stop-color="#FBBF24" stop-opacity="0.67"/>
<stop offset="1" stop-color="white" stop-opacity="0"/>
</linearGradient>
<linearGradient id="paint4_linear_420_135" x1="1" y1="-4.73345e-07" x2="65" y2="65.5" gradientUnits="userSpaceOnUse">
<stop stop-color="#FBBF24" stop-opacity="0.67"/>
<stop offset="1" stop-color="white" stop-opacity="0"/>
</linearGradient>
<linearGradient id="paint5_linear_420_135" x1="1" y1="-4.73345e-07" x2="65" y2="65.5" gradientUnits="userSpaceOnUse">
<stop stop-color="#FBBF24" stop-opacity="0.67"/>
<stop offset="1" stop-color="white" stop-opacity="0"/>
</linearGradient>
<linearGradient id="paint6_linear_420_135" x1="1" y1="-4.73345e-07" x2="65" y2="65.5" gradientUnits="userSpaceOnUse">
<stop stop-color="#FBBF24" stop-opacity="0.67"/>
<stop offset="1" stop-color="white" stop-opacity="0"/>
</linearGradient>
</defs>
</svg>
