<svg width="81" height="77" viewBox="0 0 81 77" fill="none" xmlns="http://www.w3.org/2000/svg">
<path fill-rule="evenodd" clip-rule="evenodd" d="M8.04215 14.8919L28.0422 0.361084H52.7635L72.7635 14.8919L80.4028 38.4033L72.7635 61.9148L52.7635 76.4456H28.0422L8.04215 61.9148L0.402832 38.4033L8.04215 14.8919ZM40.4028 4.37731L31.1198 1.36108L49.6858 1.36108L40.4028 4.37731ZM38.7848 4.90304L28.4241 1.53665L22.0209 10.35L38.7848 4.90304ZM22.4759 11.2536L39.3164 5.78176L32.8235 14.7481L22.4759 11.2536ZM20.7096 12.1548L9.90623 27.0243L20.6647 23.5774L20.7096 12.1548ZM20.6605 24.6288L9.71539 28.1356L16.4223 37.3975L20.6332 31.5824L20.6605 24.6288ZM21.6387 30.1939L21.6618 24.308L27.1814 22.5396L21.6387 30.1939ZM20.6265 33.2967L17.0396 38.25L20.5877 43.1497L20.6265 33.2967ZM21.5823 44.5232L21.6319 31.9082L28.7891 22.0246L40.3122 18.3327L52.5236 22.4566L59.6645 32.3178L59.763 44.7777L48.0685 60.4921L28.638 54.2667L21.5823 44.5232ZM20.5811 44.8455L16.4223 39.1025L9.80955 48.2343L20.5542 51.6768L20.5811 44.8455ZM21.553 51.9968L21.5757 46.219L27.0303 53.7517L21.553 51.9968ZM20.5501 52.7255L9.46402 49.1737L20.5043 64.3694L20.5501 52.7255ZM21.5009 65.2363L21.5488 53.0455L28.0204 55.119L39.6069 71.1193L21.5009 65.2363ZM54.1579 23.0086L59.6508 30.594L59.6054 24.8482L54.1579 23.0086ZM59.597 23.7899L53.1462 21.6114L48.8022 15.6126L59.5053 12.1834L59.597 23.7899ZM60.6081 25.1869L60.6619 31.9903L64.9117 37.8591L71.5837 28.8935L60.6081 25.1869ZM71.4603 27.7963L60.5997 24.1286L60.5096 12.724L71.4603 27.7963ZM51.5118 21.0594L41.916 17.8188L47.8 15.9336L51.5118 21.0594ZM40.3204 17.2799L47.1828 15.0813L40.4999 5.85246L33.8156 15.0832L40.3204 17.2799ZM32.2094 15.5962L28.1715 21.1723L21.6659 23.2567L21.71 12.0504L32.2094 15.5962ZM33.2015 15.9312L38.7166 17.7938L29.7792 20.6573L33.2015 15.9312ZM49.0751 60.8146L59.7761 46.4351L59.9172 64.2883L49.0751 60.8146ZM60.7656 45.1054L60.9113 63.5298L71.6437 48.7579L71.5949 48.7932L64.9007 39.5488L60.7656 45.1054ZM60.6755 33.7141L60.7525 43.448L64.286 38.6999L60.6755 33.7141ZM41.7431 5.86424L58.727 11.3827L48.185 14.7602L41.7431 5.86424ZM9.04211 28.9108V47.5891L15.805 38.25L9.04211 28.9108ZM41.4726 71.0303L59.4507 65.1889L48.4441 61.6625L41.4726 71.0303ZM47.4375 61.34L40.5054 70.6551L29.6281 55.634L47.4375 61.34ZM65.5265 38.708L71.7635 47.321V30.327L65.5265 38.708ZM20.4028 10.8757L26.14 2.97912L11.1199 13.8919L20.4028 10.8757ZM11.1199 62.9148L26.14 73.8276L20.4028 65.931L11.1199 62.9148ZM19.4028 64.5546L9.04211 50.2943V61.1882L19.4028 64.5546ZM8.04211 48.9179V58.6786L2.30495 41.0214L8.04211 48.9179ZM8.04211 29.5901L1.6389 38.4033L8.04211 47.2166V29.5901ZM8.04211 27.8888L2.30494 35.7853L8.04211 18.1281V27.8888ZM9.04211 26.5124V15.6185L19.4028 12.2521L9.04211 26.5124ZM22.0209 66.4567L28.4241 75.27L38.7848 71.9036L22.0209 66.4567ZM40.4028 72.4294L31.1198 75.4456H49.6858L40.4028 72.4294ZM54.6655 73.8276L69.6858 62.9148L60.4028 65.931L54.6655 73.8276ZM58.7847 66.4567L42.0208 71.9036L52.3815 75.27L58.7847 66.4567ZM61.4028 64.5546L71.7635 61.1882V50.2943L61.4028 64.5546ZM72.7635 48.9179V58.6787L78.5007 41.0213L72.7635 48.9179ZM78.5007 35.7854L72.7635 18.128V27.8888L78.5007 35.7854ZM72.7635 47.2166L79.1667 38.4033L72.7635 29.5901V47.2166ZM71.7635 26.5124V15.6185L61.4028 12.2521L71.7635 26.5124ZM60.4028 10.8757L69.6858 13.8919L54.6655 2.97906L60.4028 10.8757ZM58.7847 10.35L42.0208 4.90304L52.3815 1.53665L58.7847 10.35Z" fill="url(#paint0_radial_421_136)"/>
<defs>
<radialGradient id="paint0_radial_421_136" cx="0" cy="0" r="1" gradientUnits="userSpaceOnUse" gradientTransform="translate(41.4999 38) rotate(57.1886) scale(45.2134 47.5402)">
<stop stop-color="#FBBF24"/>
<stop offset="1" stop-color="#FBBF24" stop-opacity="0"/>
</radialGradient>
</defs>
</svg>
