<svg width="25" height="26" viewBox="0 0 25 26" fill="none" xmlns="http://www.w3.org/2000/svg">
<path d="M17.6104 7.98257C17.6154 7.98257 17.622 7.98257 17.6287 7.98257C17.8021 7.98257 17.9631 8.03652 18.0951 8.12948L18.0926 8.12782C18.1889 8.21165 18.2537 8.32952 18.2694 8.46232V8.46481C18.286 8.56607 18.2952 8.68227 18.2952 8.80096C18.2952 8.85491 18.2935 8.90804 18.2893 8.96116V8.95369C18.1026 10.92 17.2925 15.6884 16.8808 17.8896C16.7065 18.8217 16.3637 19.1338 16.0317 19.1637C15.3104 19.2309 14.7626 18.6873 14.0637 18.2291C12.9698 17.5111 12.3514 17.0646 11.2898 16.3649C10.0623 15.5573 10.8582 15.1116 11.5571 14.3861C11.7405 14.1952 14.9203 11.3026 14.9826 11.0403C14.9859 11.0246 14.9875 11.0071 14.9875 10.9889C14.9875 10.9241 14.9635 10.8652 14.9245 10.8204C14.8813 10.7922 14.8274 10.7764 14.7709 10.7764C14.7336 10.7764 14.6979 10.7839 14.6647 10.7963L14.6663 10.7955C14.5568 10.8204 12.8093 11.9752 9.42397 14.26C9.05462 14.5513 8.58815 14.7356 8.08018 14.7571H8.0752C7.35558 14.67 6.70236 14.5098 6.08234 14.2815L6.14376 14.3015C5.36521 14.0475 4.74685 13.9138 4.79997 13.4839C4.82819 13.2603 5.1364 13.0315 5.7246 12.7975C9.34789 11.2188 11.7641 10.1782 12.9731 9.6758C14.3069 8.9678 15.8533 8.38513 17.4792 8.00747L17.6096 7.98174L17.6104 7.98257ZM12.471 0.5C5.58018 0.5166 0 6.10674 0 13C0 19.9032 5.59595 25.5 12.5 25.5C19.4041 25.5 25 19.904 25 13C25 6.10674 19.4198 0.5166 12.5307 0.5H12.5291C12.5097 0.5 12.4903 0.5 12.471 0.5Z" fill="white"/>
</svg>