<svg width="26" height="26" viewBox="0 0 26 26" fill="none" xmlns="http://www.w3.org/2000/svg">
<path d="M13 0C5.82021 0 0 5.82021 0 13C0 20.1798 5.82021 26 13 26C20.1798 26 26 20.1798 26 13C26 5.82021 20.1798 0 13 0ZM17.9996 14.667C17.9996 14.667 19.1493 15.8018 19.4323 16.3285C19.4404 16.3394 19.4445 16.3502 19.4472 16.3556C19.5623 16.5493 19.5894 16.6996 19.5325 16.812C19.4377 16.9989 19.1127 17.0909 19.0017 17.0991H16.9704C16.8296 17.0991 16.5344 17.0625 16.1769 16.816C15.902 16.6237 15.6311 16.3082 15.3671 16.0008C14.973 15.5431 14.6318 15.1477 14.2878 15.1477C14.2441 15.1476 14.2007 15.1545 14.1592 15.168C13.8992 15.252 13.566 15.623 13.566 16.6116C13.566 16.9203 13.3223 17.0977 13.1503 17.0977H12.22C11.9031 17.0977 10.2524 16.9867 8.7899 15.4443C6.99969 13.5552 5.38823 9.76625 5.37469 9.73104C5.27312 9.48594 5.48302 9.35458 5.71187 9.35458H7.76344C8.03698 9.35458 8.12635 9.52115 8.18865 9.66875C8.26177 9.84073 8.5299 10.5246 8.97 11.2937C9.68365 12.5477 10.121 13.0569 10.4718 13.0569C10.5375 13.0561 10.6021 13.0394 10.66 13.0081C11.1177 12.7535 11.0324 11.1218 11.0121 10.7832C11.0121 10.7196 11.0107 10.0533 10.7765 9.73375C10.6085 9.50219 10.3228 9.41417 10.1495 9.38167C10.2196 9.28486 10.3121 9.20636 10.419 9.15281C10.7331 8.99573 11.2992 8.97271 11.8611 8.97271H12.174C12.7833 8.98083 12.9404 9.0201 13.1611 9.07562C13.608 9.1826 13.6175 9.47104 13.5782 10.4582C13.566 10.7385 13.5539 11.0554 13.5539 11.4292C13.5539 11.5104 13.5498 11.5971 13.5498 11.6892C13.5363 12.1916 13.52 12.7617 13.8748 12.9959C13.9211 13.025 13.9745 13.0404 14.0292 13.0406C14.1524 13.0406 14.5234 13.0406 15.5282 11.3168C15.8381 10.7619 16.1074 10.1853 16.334 9.59156C16.3543 9.55635 16.4139 9.44802 16.4843 9.40604C16.5362 9.37955 16.5939 9.36607 16.6522 9.36677H19.064C19.3267 9.36677 19.5068 9.40604 19.5406 9.5076C19.6002 9.66875 19.5298 10.1603 18.4289 11.6512L17.9373 12.2999C16.9393 13.608 16.9393 13.6744 17.9996 14.667Z" fill="white"/>
</svg>